<?xml version="1.0" encoding="utf-8"?>
<!-- Generator: Adobe Illustrator 16.0.0, SVG Export Plug-In . SVG Version: 6.00 Build 0)  -->
<!DOCTYPE svg PUBLIC "-//W3C//DTD SVG 1.1//EN" "http://www.w3.org/Graphics/SVG/1.1/DTD/svg11.dtd">
<svg version="1.1" id="Layer_1" xmlns="http://www.w3.org/2000/svg" xmlns:xlink="http://www.w3.org/1999/xlink" x="0px" y="0px"
	 width="45px" height="45px" viewBox="0 0 45 45" enable-background="new 0 0 45 45" xml:space="preserve">
<g>
	<path fill="#231F20" d="M22.499,16.416c-1.428,0-1.428,2.143,0,2.143C23.928,18.559,23.928,16.416,22.499,16.416"/>
	<path fill="#231F20" d="M27.512,13.91c-1.428,0-1.428,2.143,0,2.143C28.941,16.053,28.941,13.91,27.512,13.91"/>
	<path fill="#231F20" d="M27.512,21.123c-1.836,0-1.836,2.755,0,2.755C29.349,23.878,29.349,21.123,27.512,21.123"/>
	<path fill="#231F20" d="M35.032,17.363c-1.838,0-1.838,2.754,0,2.754C36.869,20.118,36.869,17.363,35.032,17.363"/>
	<path fill="#231F20" d="M32.597,25.83c-2.245,0-2.245,3.369,0,3.369S34.842,25.83,32.597,25.83"/>
	<path fill="#231F20" d="M42.551,20.816c-2.245,0-2.245,3.368,0,3.368C44.795,24.185,44.795,20.816,42.551,20.816"/>
	<path fill="#231F20" d="M17.488,13.907c1.428,0,1.428,2.143,0,2.143C16.059,16.05,16.059,13.907,17.488,13.907"/>
	<path fill="#231F20" d="M17.488,21.121c1.837,0,1.837,2.755,0,2.755C15.65,23.876,15.65,21.121,17.488,21.121"/>
	<path fill="#231F20" d="M9.968,17.361c1.837,0,1.837,2.755,0,2.755C8.131,20.116,8.131,17.361,9.968,17.361"/>
	<path fill="#231F20" d="M12.403,25.827c2.245,0,2.245,3.368,0,3.368S10.158,25.827,12.403,25.827"/>
	<path fill="#231F20" d="M2.448,20.813c2.245,0,2.245,3.369,0,3.369C0.204,24.182,0.204,20.813,2.448,20.813"/>
	<path fill="#231F20" d="M22.499,28.336c-2.244,0-2.244,3.369,0,3.369C24.744,31.705,24.744,28.336,22.499,28.336"/>
</g>
</svg>
