<?xml version="1.0" encoding="utf-8"?>
<!-- Generator: Adobe Illustrator 16.0.0, SVG Export Plug-In . SVG Version: 6.00 Build 0)  -->
<!DOCTYPE svg PUBLIC "-//W3C//DTD SVG 1.1//EN" "http://www.w3.org/Graphics/SVG/1.1/DTD/svg11.dtd">
<svg version="1.1" id="Layer_1" xmlns="http://www.w3.org/2000/svg" xmlns:xlink="http://www.w3.org/1999/xlink" x="0px" y="0px"
	 width="45px" height="45px" viewBox="0 0 45 45" enable-background="new 0 0 45 45" xml:space="preserve">
<path fill="#231F20" d="M37.539,28.584c-0.592,0-1.07-0.479-1.07-1.07V17.487c0-0.592,0.479-1.071,1.07-1.071
	s1.072,0.479,1.072,1.071v10.026C38.611,28.104,38.131,28.584,37.539,28.584"/>
<path fill="#231F20" d="M42.551,26.079c-0.592,0-1.068-0.48-1.068-1.072v-5.014c0-0.591,0.477-1.07,1.068-1.07
	c0.594,0,1.072,0.479,1.072,1.07v5.014C43.623,25.599,43.145,26.079,42.551,26.079"/>
<path fill="#231F20" d="M32.525,33.597c-0.59,0-1.07-0.479-1.07-1.071V12.475c0-0.592,0.48-1.071,1.07-1.071
	c0.594,0,1.074,0.479,1.074,1.071v20.051C33.6,33.117,33.119,33.597,32.525,33.597"/>
<path fill="#231F20" d="M7.461,28.584c-0.59,0-1.07-0.479-1.07-1.07V17.487c0-0.592,0.48-1.071,1.07-1.071
	c0.592,0,1.072,0.479,1.072,1.071v10.026C8.533,28.104,8.053,28.584,7.461,28.584"/>
<path fill="#231F20" d="M12.475,33.597c-0.592,0-1.072-0.479-1.072-1.071V12.475c0-0.592,0.48-1.071,1.072-1.071
	s1.07,0.479,1.07,1.071v20.051C13.545,33.117,13.066,33.597,12.475,33.597"/>
<path fill="#231F20" d="M17.486,38.599c-0.59,0-1.07-0.48-1.07-1.071V7.473c0-0.591,0.48-1.07,1.07-1.07
	c0.592,0,1.072,0.479,1.072,1.07v30.055C18.559,38.118,18.078,38.599,17.486,38.599"/>
<path fill="#231F20" d="M2.449,26.079c-0.594,0-1.072-0.48-1.072-1.072v-5.014c0-0.591,0.479-1.07,1.072-1.07
	c0.59,0,1.07,0.479,1.07,1.07v5.014C3.52,25.599,3.039,26.079,2.449,26.079"/>
<path fill="#231F20" d="M27.514,38.599c-0.592,0-1.07-0.48-1.07-1.071V7.473c0-0.591,0.479-1.07,1.07-1.07s1.072,0.479,1.072,1.07
	v30.055C28.586,38.118,28.105,38.599,27.514,38.599"/>
<path fill="#231F20" d="M22.5,43.624c-0.59,0-1.07-0.479-1.07-1.071V2.449c0-0.593,0.48-1.073,1.07-1.073
	c0.592,0,1.072,0.48,1.072,1.073v40.104C23.572,43.145,23.092,43.624,22.5,43.624"/>
</svg>
