<?xml version="1.0" encoding="utf-8"?>
<!-- Generator: Adobe Illustrator 16.0.0, SVG Export Plug-In . SVG Version: 6.00 Build 0)  -->
<!DOCTYPE svg PUBLIC "-//W3C//DTD SVG 1.1//EN" "http://www.w3.org/Graphics/SVG/1.1/DTD/svg11.dtd">
<svg version="1.1" id="Layer_1" xmlns="http://www.w3.org/2000/svg" xmlns:xlink="http://www.w3.org/1999/xlink" x="0px" y="0px"
	 width="45px" height="45px" viewBox="0 0 45 45" enable-background="new 0 0 45 45" xml:space="preserve">
<g>
	<path fill="#231F20" d="M17.636,43.623c-0.592,0-1.071-0.479-1.071-1.071c0-3.639,1.146-5.549,2.158-7.235
		c0.952-1.588,1.853-3.088,1.853-6.133c0-3.046-0.9-4.544-1.853-6.132c-1.012-1.687-2.158-3.597-2.158-7.236
		c0-3.638,1.146-5.549,2.158-7.234c0.952-1.587,1.853-3.088,1.853-6.132c0-0.592,0.479-1.071,1.07-1.071
		c0.592,0,1.072,0.479,1.072,1.071c0,3.639-1.146,5.55-2.158,7.235c-0.952,1.588-1.853,3.086-1.853,6.132
		c0,3.046,0.9,4.546,1.853,6.134c1.012,1.686,2.158,3.596,2.158,7.235s-1.146,5.55-2.158,7.234
		c-0.952,1.589-1.853,3.088-1.853,6.134C18.707,43.144,18.228,43.623,17.636,43.623"/>
	<path fill="#231F20" d="M12.58,43.623c-0.592,0-1.071-0.479-1.071-1.071c0-3.639,1.146-5.549,2.158-7.235
		c0.952-1.588,1.853-3.088,1.853-6.133c0-3.046-0.9-4.544-1.853-6.132c-1.012-1.687-2.158-3.597-2.158-7.236
		c0-3.638,1.146-5.549,2.158-7.234c0.952-1.587,1.853-3.088,1.853-6.132c0-0.592,0.479-1.071,1.07-1.071s1.071,0.479,1.071,1.071
		c0,3.639-1.146,5.55-2.157,7.235c-0.952,1.588-1.853,3.086-1.853,6.132c0,3.046,0.9,4.546,1.853,6.134
		c1.012,1.686,2.157,3.596,2.157,7.235s-1.146,5.55-2.157,7.234c-0.952,1.589-1.853,3.088-1.853,6.134
		C13.651,43.144,13.172,43.623,12.58,43.623"/>
	<path fill="#231F20" d="M7.523,43.623c-0.591,0-1.071-0.479-1.071-1.071c0-3.639,1.147-5.549,2.158-7.235
		c0.952-1.588,1.853-3.088,1.853-6.133c0-3.046-0.9-4.544-1.853-6.132c-1.011-1.687-2.158-3.597-2.158-7.236
		c0-3.638,1.147-5.549,2.158-7.234c0.952-1.587,1.853-3.088,1.853-6.132c0-0.592,0.479-1.071,1.071-1.071s1.071,0.479,1.071,1.071
		c0,3.639-1.146,5.55-2.157,7.235c-0.953,1.588-1.854,3.086-1.854,6.132c0,3.046,0.9,4.546,1.854,6.134
		c1.012,1.686,2.157,3.596,2.157,7.235s-1.146,5.55-2.157,7.234c-0.953,1.589-1.854,3.088-1.854,6.134
		C8.595,43.144,8.115,43.623,7.523,43.623"/>
	<path fill="#231F20" d="M32.805,43.623c-0.592,0-1.071-0.479-1.071-1.071c0-3.639,1.146-5.549,2.157-7.235
		c0.954-1.588,1.853-3.088,1.853-6.133c0-3.046-0.898-4.544-1.853-6.132c-1.011-1.687-2.157-3.597-2.157-7.236
		c0-3.638,1.146-5.549,2.157-7.234c0.954-1.587,1.853-3.088,1.853-6.132c0-0.592,0.48-1.071,1.072-1.071s1.072,0.479,1.072,1.071
		c0,3.639-1.147,5.55-2.159,7.235c-0.952,1.588-1.853,3.086-1.853,6.132c0,3.046,0.9,4.546,1.853,6.134
		c1.012,1.686,2.159,3.596,2.159,7.235s-1.147,5.55-2.159,7.234c-0.952,1.589-1.853,3.088-1.853,6.134
		C33.876,43.144,33.397,43.623,32.805,43.623"/>
	<path fill="#231F20" d="M27.749,43.623c-0.593,0-1.072-0.479-1.072-1.071c0-3.639,1.146-5.549,2.158-7.235
		c0.953-1.588,1.853-3.088,1.853-6.133c0-3.046-0.899-4.544-1.853-6.132c-1.012-1.687-2.158-3.597-2.158-7.236
		c0-3.638,1.146-5.549,2.158-7.234c0.953-1.587,1.853-3.088,1.853-6.132c0-0.592,0.479-1.071,1.071-1.071s1.072,0.479,1.072,1.071
		c0,3.639-1.147,5.55-2.158,7.235c-0.953,1.588-1.854,3.086-1.854,6.132c0,3.046,0.9,4.546,1.854,6.134
		c1.011,1.686,2.158,3.596,2.158,7.235s-1.147,5.55-2.158,7.234c-0.953,1.589-1.854,3.088-1.854,6.134
		C28.819,43.144,28.341,43.623,27.749,43.623"/>
	<path fill="#231F20" d="M22.692,43.623c-0.592,0-1.071-0.479-1.071-1.071c0-3.639,1.146-5.549,2.158-7.235
		c0.952-1.588,1.852-3.088,1.852-6.133c0-3.046-0.899-4.544-1.852-6.132c-1.012-1.687-2.158-3.597-2.158-7.236
		c0-3.638,1.146-5.549,2.158-7.234c0.952-1.587,1.852-3.088,1.852-6.132c0-0.592,0.479-1.071,1.071-1.071s1.072,0.479,1.072,1.071
		c0,3.639-1.146,5.55-2.158,7.235c-0.953,1.588-1.853,3.086-1.853,6.132c0,3.046,0.899,4.546,1.853,6.134
		c1.012,1.686,2.158,3.596,2.158,7.235s-1.146,5.55-2.158,7.234c-0.953,1.589-1.853,3.088-1.853,6.134
		C23.764,43.144,23.284,43.623,22.692,43.623"/>
</g>
</svg>
