<?xml version="1.0" encoding="utf-8"?>
<!-- Generator: Adobe Illustrator 16.0.0, SVG Export Plug-In . SVG Version: 6.00 Build 0)  -->
<!DOCTYPE svg PUBLIC "-//W3C//DTD SVG 1.1//EN" "http://www.w3.org/Graphics/SVG/1.1/DTD/svg11.dtd">
<svg version="1.1" id="Layer_1" xmlns="http://www.w3.org/2000/svg" xmlns:xlink="http://www.w3.org/1999/xlink" x="0px" y="0px"
	 width="45px" height="45px" viewBox="0 0 45 45" enable-background="new 0 0 45 45" xml:space="preserve">
<g>
	<path fill="#231F20" d="M22.499,42.988c-5.957,0-10.803-4.846-10.803-10.803c0-5.959,4.846-10.805,10.803-10.805
		c5.958,0,10.806,4.846,10.806,10.805C33.305,38.143,28.457,42.988,22.499,42.988 M22.499,23.467c-4.807,0-8.717,3.912-8.717,8.719
		c0,4.809,3.91,8.717,8.717,8.717c4.808,0,8.719-3.908,8.719-8.717C31.218,27.379,27.307,23.467,22.499,23.467"/>
	<path fill="#231F20" d="M11.723,43.141c-0.281,0-0.562-0.113-0.768-0.336c-2.67-2.902-4.142-6.672-4.142-10.619
		c0-8.648,7.038-15.686,15.686-15.686c8.648,0,15.686,7.037,15.686,15.686c0,3.947-1.471,7.717-4.141,10.619
		c-0.39,0.422-1.05,0.451-1.474,0.059c-0.424-0.389-0.452-1.047-0.061-1.471c2.313-2.518,3.589-5.785,3.589-9.207
		c0-7.498-6.101-13.6-13.6-13.6c-7.497,0-13.598,6.102-13.598,13.6c0,3.422,1.274,6.689,3.589,9.207
		c0.392,0.424,0.362,1.082-0.062,1.473C12.229,43.051,11.976,43.141,11.723,43.141"/>
	<path fill="#231F20" d="M5.678,43.141c-0.356,0-0.705-0.182-0.897-0.514c-1.862-3.152-2.846-6.762-2.846-10.441
		c0-11.34,9.226-20.566,20.564-20.566c11.342,0,20.566,9.227,20.566,20.566c0,3.68-0.983,7.289-2.845,10.441
		c-0.293,0.496-0.933,0.66-1.429,0.367c-0.495-0.293-0.662-0.932-0.369-1.428c1.672-2.832,2.556-6.074,2.556-9.381
		c0-10.189-8.288-18.479-18.479-18.479c-10.188,0-18.478,8.289-18.478,18.479c0,3.305,0.882,6.549,2.554,9.381
		c0.294,0.496,0.129,1.137-0.366,1.43C6.042,43.096,5.858,43.141,5.678,43.141"/>
	<path fill="#231F20" d="M39.153,15.393c-0.255,0-0.513-0.094-0.711-0.281c-4.34-4.055-10-6.287-15.943-6.287
		c-5.94,0-11.602,2.232-15.941,6.287c-0.421,0.391-1.081,0.367-1.474-0.053s-0.37-1.08,0.051-1.473
		C9.862,9.17,16.028,6.74,22.499,6.74c6.473,0,12.641,2.43,17.367,6.846c0.421,0.393,0.442,1.053,0.05,1.473
		C39.71,15.279,39.431,15.393,39.153,15.393"/>
	<path fill="#231F20" d="M34.744,6.619c-0.146,0-0.295-0.029-0.438-0.096c-3.711-1.711-7.685-2.578-11.808-2.578
		c-4.121,0-8.095,0.867-11.807,2.578c-0.523,0.24-1.143,0.014-1.382-0.512C9.069,5.49,9.297,4.869,9.819,4.629
		c3.989-1.838,8.254-2.77,12.68-2.77s8.692,0.932,12.681,2.77c0.524,0.242,0.752,0.861,0.511,1.385
		C35.515,6.396,35.139,6.619,34.744,6.619"/>
	<path fill="#231F20" d="M22.499,38.109c-3.267,0-5.923-2.658-5.923-5.924s2.656-5.922,5.923-5.922s5.925,2.656,5.925,5.922
		S25.766,38.109,22.499,38.109 M22.499,28.35c-2.115,0-3.836,1.721-3.836,3.836s1.721,3.838,3.836,3.838
		c2.117,0,3.839-1.723,3.839-3.838S24.616,28.35,22.499,28.35"/>
</g>
</svg>
