<?xml version="1.0" encoding="utf-8"?>
<!-- Generator: Adobe Illustrator 16.0.0, SVG Export Plug-In . SVG Version: 6.00 Build 0)  -->
<!DOCTYPE svg PUBLIC "-//W3C//DTD SVG 1.1//EN" "http://www.w3.org/Graphics/SVG/1.1/DTD/svg11.dtd">
<svg version="1.1" id="Layer_1" xmlns="http://www.w3.org/2000/svg" xmlns:xlink="http://www.w3.org/1999/xlink" x="0px" y="0px"
	 width="45px" height="45px" viewBox="0 0 45 45" enable-background="new 0 0 45 45" xml:space="preserve">
<g>
	<g>
		<path d="M3.34,35.021c-0.497,0-0.936-0.359-1.021-0.865c-1.438-8.574,2.861-17.4,10.455-21.463
			c7.759-4.152,17.56-2.838,23.836,3.196c4.864,4.678,7.191,11.676,6.07,18.264c-0.096,0.563-0.631,0.943-1.196,0.848
			c-0.564-0.096-0.943-0.631-0.848-1.195c1.006-5.921-1.087-12.213-5.464-16.421c-5.635-5.419-14.443-6.597-21.42-2.863
			C6.931,18.169,3.071,26.103,4.364,33.812c0.095,0.564-0.286,1.099-0.851,1.194C3.455,35.016,3.397,35.021,3.34,35.021z"/>
	</g>
	<g>
		<path fill="#010101" d="M17.132,12.813c0-1.21-0.982-2.192-2.193-2.192c-1.21,0-2.19,0.982-2.19,2.192
			c0,1.21,0.98,2.192,2.19,2.192C16.149,15.005,17.132,14.023,17.132,12.813"/>
		<path fill="#010101" d="M32.251,12.813c0-1.21-0.98-2.192-2.192-2.192c-1.209,0-2.191,0.982-2.191,2.192
			c0,1.21,0.982,2.192,2.191,2.192C31.271,15.005,32.251,14.023,32.251,12.813"/>
		<path fill="#010101" d="M20.495,33.6c-0.481,0-0.921-0.32-1.05-0.808l-5.551-19.693c-0.156-0.58,0.19-1.176,0.772-1.332
			c0.58-0.152,1.178,0.192,1.332,0.775l5.551,19.692c0.154,0.581-0.19,1.177-0.771,1.33C20.683,33.59,20.588,33.6,20.495,33.6"/>
		<path fill="#010101" d="M24.313,33.6c-0.097,0-0.192-0.01-0.289-0.038c-0.579-0.159-0.922-0.756-0.762-1.336l5.712-19.7
			c0.158-0.579,0.756-0.92,1.337-0.762c0.58,0.157,0.92,0.757,0.761,1.337l-5.711,19.7C25.229,33.283,24.791,33.6,24.313,33.6"/>
	</g>
</g>
</svg>
