<?xml version="1.0" encoding="utf-8"?>
<!-- Generator: Adobe Illustrator 16.0.0, SVG Export Plug-In . SVG Version: 6.00 Build 0)  -->
<!DOCTYPE svg PUBLIC "-//W3C//DTD SVG 1.1//EN" "http://www.w3.org/Graphics/SVG/1.1/DTD/svg11.dtd">
<svg version="1.1" id="Layer_1" xmlns="http://www.w3.org/2000/svg" xmlns:xlink="http://www.w3.org/1999/xlink" x="0px" y="0px"
	 width="45px" height="45px" viewBox="0 0 45 45" enable-background="new 0 0 45 45" xml:space="preserve">
<g>
	<path fill="#010101" d="M18.99,11.667c0-1.191-0.967-2.158-2.159-2.158c-1.191,0-2.156,0.967-2.156,2.158s0.965,2.158,2.156,2.158
		C18.023,13.825,18.99,12.858,18.99,11.667"/>
	<path fill="#010101" d="M33.877,11.667c0-1.191-0.967-2.158-2.159-2.158c-1.19,0-2.157,0.967-2.157,2.158s0.967,2.158,2.157,2.158
		C32.91,13.825,33.877,12.858,33.877,11.667"/>
	<path fill="#010101" d="M2.58,35.696c-0.537,0-1.002-0.406-1.063-0.953c-0.093-0.842-0.141-1.699-0.141-2.547
		c0-12.623,10.271-22.893,22.894-22.893c7.761,0,14.93,3.885,19.181,10.391c0.323,0.496,0.184,1.16-0.312,1.484
		c-0.496,0.322-1.158,0.184-1.482-0.312c-3.854-5.896-10.353-9.419-17.387-9.419c-11.441,0-20.749,9.308-20.749,20.749
		c0,0.77,0.042,1.547,0.127,2.311c0.064,0.589-0.358,1.118-0.947,1.184C2.661,35.694,2.619,35.696,2.58,35.696"/>
	<path fill="#010101" d="M22.301,33.267c-0.474,0-0.906-0.315-1.034-0.795l-5.465-20.522c-0.152-0.571,0.188-1.159,0.76-1.312
		c0.571-0.15,1.16,0.188,1.312,0.762l5.464,20.521c0.151,0.572-0.187,1.158-0.759,1.311C22.486,33.257,22.394,33.267,22.301,33.267"
		/>
	<path fill="#010101" d="M26.062,33.267c-0.095,0-0.19-0.01-0.284-0.037c-0.571-0.157-0.907-0.745-0.751-1.316l5.623-20.529
		c0.157-0.57,0.746-0.906,1.316-0.75c0.571,0.155,0.907,0.746,0.75,1.316l-5.622,20.529C26.963,32.955,26.531,33.267,26.062,33.267"
		/>
	<path fill="#010101" d="M42.396,35.696c-0.048,0-0.094-0.003-0.142-0.008c-0.588-0.078-1.001-0.617-0.922-1.204
		c0.098-0.753,0.149-1.522,0.149-2.288c0-3.166-0.862-6.262-2.494-8.953l-0.151-0.247c-3.187-5.073-8.669-8.106-14.661-8.106
		c-6.017,0-11.512,3.055-14.698,8.166C9.163,23.559,8.504,23.714,8,23.399c-0.502-0.313-0.656-0.974-0.343-1.477
		c3.581-5.745,9.757-9.176,16.518-9.176c6.733,0,12.894,3.408,16.48,9.116l0.161,0.261c1.839,3.034,2.808,6.514,2.808,10.072
		c0,0.859-0.057,1.725-0.169,2.568C43.385,35.304,42.925,35.696,42.396,35.696"/>
</g>
</svg>
